<svg width="18" height="18" viewBox="0 0 18 18" fill="none" xmlns="http://www.w3.org/2000/svg">
<g clip-path="url(#clip0_109_29)">
<path d="M16.5228 2.8392C15.5792 1.87418 14.317 1.34271 12.9687 1.34271C11.6411 1.34271 10.3929 1.85976 9.45396 2.79878L8.96935 3.2837L8.48428 2.79864C7.54537 1.85973 6.29741 1.34267 4.97025 1.34267C3.64266 1.34267 2.39449 1.85973 1.45565 2.79864C0.51695 3.7373 0 4.98537 0 6.31295C0 7.64054 0.51695 8.8886 1.45565 9.82727L7.66752 16.0391C8.02637 16.3979 8.49762 16.5773 8.96896 16.5773C9.4402 16.5773 9.91155 16.3979 10.2703 16.0391L16.4422 9.86783C18.3806 7.92929 18.4168 4.77631 16.5228 2.8392ZM15.7914 9.21711L9.61958 15.3885C9.26079 15.7472 8.67699 15.7472 8.31824 15.3885L2.10633 9.17651C1.34144 8.41166 0.92022 7.3947 0.92022 6.31292C0.92022 5.23114 1.34144 4.21418 2.10633 3.44929C2.87137 2.68422 3.88847 2.26289 4.97025 2.26289C6.05161 2.26289 7.06849 2.68422 7.83356 3.44929L8.31887 3.9346L7.57572 4.67831C7.3961 4.85807 7.39623 5.14938 7.57596 5.329C7.6658 5.41877 7.78347 5.46364 7.90118 5.46364C8.01902 5.46364 8.1368 5.41863 8.22664 5.32875L10.1047 3.44925C10.8697 2.68419 11.8868 2.26286 12.9686 2.26286C14.0672 2.26286 15.0957 2.69602 15.8647 3.4825C17.4081 5.0609 17.3752 7.6334 15.7914 9.21711Z" fill="#0074B9"/>
<path d="M16.3202 6.10411C16.2696 5.28581 15.9229 4.5163 15.344 3.9373C14.9341 3.52738 14.4254 3.22953 13.8731 3.07577C13.6283 3.00766 13.3746 3.15092 13.3065 3.39574C13.2384 3.64053 13.3816 3.89421 13.6265 3.96232C14.0264 4.07359 14.3953 4.28992 14.6933 4.58795C15.1135 5.00809 15.3651 5.56665 15.4018 6.16078C15.4169 6.40476 15.6194 6.59254 15.8606 6.59254C15.8701 6.59254 15.8797 6.59226 15.8894 6.59163C16.143 6.57605 16.3358 6.35776 16.3202 6.10411Z" fill="#0074B9"/>
</g>
<defs>
<clipPath id="clip0_109_29">
<rect width="17.92" height="17.92" fill="white"/>
</clipPath>
</defs>
</svg>
