<svg width="139" height="142" viewBox="0 0 139 142" fill="none" xmlns="http://www.w3.org/2000/svg">
<path d="M137.267 134.206V123.951C137.275 119.172 134.4 114.858 129.984 113.027L108.509 104.078L102.967 81.9199L138.94 45.9463L135.593 42.5997L123.067 55.1264L95.647 27.7065L120.007 3.34659L116.66 0L76.9172 39.7431L64.9279 27.7539L83.3711 9.31061L80.0222 5.96401L33.9222 52.0663L5.52237 80.4662L2.08102 83.9145C0.673508 85.322 -0.0799377 87.2553 0.0067316 89.2429C0.0922454 91.2317 1.00863 93.0933 2.53286 94.3726L52.7768 136.572L54.434 141.306H61.5813H85.2004H92.3004H126.173L136.831 136.572C137.111 135.814 137.259 135.015 137.267 134.206ZM105.589 107.991L128.162 117.402C130.809 118.5 132.535 121.085 132.533 123.951V127.106H95.5233L56.3557 94.465C59.3521 86.0616 58.6542 76.781 54.434 68.9195L66.2672 57.0862L71.0213 61.8415C71.5725 74.5045 81.9914 84.4923 94.6671 84.5061H98.7347L99.9181 89.2394H85.2004V93.9727H101.101L102.285 98.706H87.5671V103.439H103.468L104.204 106.381C104.386 107.106 104.899 107.703 105.589 107.991ZM50.9452 72.4082C53.714 78.2937 54.2606 84.9822 52.4833 91.2398L41.3723 81.9812L50.9452 72.4082ZM119.72 58.473L98.4204 79.7728H94.6671C84.2147 79.7613 75.7454 71.2919 75.7338 60.8396C75.7338 60.2121 75.4842 59.6101 75.0405 59.1663L69.6138 53.7396L92.3004 31.0531L119.72 58.473ZM73.5706 43.0897L47.1607 69.4996C45.7751 66.8233 45.0552 63.8534 45.0621 60.8396C45.061 60.2121 44.8125 59.6101 44.3688 59.1663L38.9409 53.7396L61.5813 31.1004L73.5706 43.0897ZM21.8185 91.2398L10.696 81.9765L20.2689 72.4036C23.0435 78.289 23.5947 84.9799 21.8185 91.2398ZM5.579 90.7498C5.07054 90.3234 4.76546 89.7028 4.73657 89.0395C4.70768 88.3774 4.95844 87.7325 5.42761 87.2634L7.34705 85.3416L62.4803 131.29C62.9056 131.645 63.443 131.84 63.9976 131.839H68.6339V127.106H64.8586L25.6932 94.4673C28.6908 86.0581 27.9917 76.7741 23.7692 68.908L35.6024 57.0747L40.3565 61.8288C40.5276 65.7532 41.6878 69.5713 43.7297 72.9259L36.201 80.4546L32.7458 83.9145C31.3371 85.3208 30.5848 87.2541 30.6704 89.2429C30.7559 91.2317 31.6711 93.0922 33.1953 94.3726L83.4347 136.572H60.1322L5.579 90.7498ZM90.7947 136.572L36.2415 90.7498C35.7319 90.3234 35.4268 89.7017 35.4014 89.0384C35.3678 88.3751 35.6186 87.7302 36.0924 87.2634L38.0141 85.3416L93.1567 131.29C93.5808 131.644 94.1147 131.838 94.6671 131.839H132.533V134.206C132.533 139.67 95.782 136.572 90.7947 136.572Z" fill="#A3D2EF"/>
</svg>
